# xmcd
#
# Track frame offsets: 
#        150
#        29452
#        53847
#        73005
#        91382
#        116607
#        135150
#        158257
#        179547
#        198937
#        215927
#        237235
#        260110
#        280587
#
# Disc length: 4000 seconds
#
# Revision: 5
# Processed by: cddbd v1.5.2PL0 Copyright (c) Steve Scherf et al.
# Submitted via: ExactAudioCopy v1.0b3
#
DISCID=c70f9e0e
DTITLE=BeBe and CeCe Winans - Greatest Hits
DYEAR=1996
DGENRE=Soul
TTITLE0=Intro - Count It All Joy
TTITLE1=Addictive Love
TTITLE2=Lost Without You
TTITLE3=For Always
TTITLE4=Feels Like Heaven (with You)
TTITLE5=It's O.K.
TTITLE6=Meantime
TTITLE7=Heaven
TTITLE8=If Anything Ever Happened to You
TTITLE9=Celebrate New Life
TTITLE10=I.O.U. Me
TTITLE11=Up Where We Belong
TTITLE12=Love Said Not So
TTITLE13=I'll Take You There
EXTD=YEAR: 1996
EXTT0=
EXTT1=
EXTT2=
EXTT3=
EXTT4=
EXTT5=
EXTT6=
EXTT7=
EXTT8=
EXTT9=
EXTT10=
EXTT11=
EXTT12=
EXTT13=
PLAYORDER=
